# xmcd
#
# Track frame offsets:
#	182
#	13047
#	29742
#	42160
#	53380
#	69777
#	84957
#	99707
#	119077
#	132122
#	145437
#	160342
#	173232
#	188342
#	201532
#	216927
#	232660
#	251085
#	268790
#	280030
#
# Disc length: 3955 seconds
#
# Revision: 0
# Processed by: cddbd v1.4PL0 Copyright (c) Steve Scherf et al.
# Submitted via: dBpowerAMP V4.0
#
DISCID=1c0f7114
DTITLE=CALICO - Calico
DYEAR=1900
DGENRE=Country
TTITLE0=Jody,it's still you
TTITLE1=Temper,temper
TTITLE2=Seeing is believing
TTITLE3=Cup of conversation
TTITLE4=Come on down to Texas
TTITLE5=You can only say so much
TTITLE6=September tears
TTITLE7=The great American dream
TTITLE8=Sleep all mornin'
TTITLE9=Help yourself (Duffs Dilemma)
TTITLE10=Sail away
TTITLE11=Another goodbye song
TTITLE12=Cold,cold heart
TTITLE13=lyin' again
TTITLE14=Recall a gypsy woman
TTITLE15=Higway affair
TTITLE16=Call it the wine or the time
TTITLE17=Our last song
TTITLE18=Uppertime lovin'
TTITLE19=That's just the way i am
EXTD=
EXTT0=
EXTT1=
EXTT2=
EXTT3=
EXTT4=
EXTT5=
EXTT6=
EXTT7=
EXTT8=
EXTT9=
EXTT10=
EXTT11=
EXTT12=
EXTT13=
EXTT14=
EXTT15=
EXTT16=
EXTT17=
EXTT18=
EXTT19=
PLAYORDER=
